# xmcd
#
# Track frame offsets:
#	150
#	15569
#	30188
#	44183
#	58377
#	73577
#	88280
#	102959
#	117193
#	131643
#	145768
#	160815
#	173308
#	186834
#	201695
#	214685
#	227189
#	240070
#	253323
#	267881
#	282938
#	293485
#	306748
#	321441
#	334294
#	348511
#
# Disc length: 4798 seconds
#
# Revision: 1
# Processed by: cddbd v1.5.2PL0 Copyright (c) Steve Scherf et al.
# Submitted via: audiograbber 1.83.01
#
DISCID=9412bc1a
DTITLE=Various Artist - Paper Moon
DYEAR=1973
DGENRE=Soundtrack
TTITLE0=Paul Whiteman and His Orchestra - It's Only a Paper Moon
TTITLE1=Ozzie Nelson and His Orchestra - About a Quarter to Nine
TTITLE2=Leo Reisman and His Orchestra (vocal Larry Stewart) - (It Will Have To Do
TTITLE2=) Until the Real Thing Comes Along
TTITLE3=Dick Powell - Flirtation Walk
TTITLE4=Bing Crosby - Just One More Chance
TTITLE5=Jimmie Grier and His Orchestra (vocal Donal Novis) - One Hour With You
TTITLE6=Victor Young and His Orchestra with the Boswell Sisters - I Found a Milli
TTITLE6=on Dollar Baby
TTITLE7=Jimmie Grier and His Orchestra (vocal Pinky Tomlin) - The Object of My Af
TTITLE7=fection
TTITLE8=Hoagy Carmichael and His Orchestra - Georgia on My Mind
TTITLE9=Paul Whiteman and His Orchestra with Kim Darby and Ramona - A Picture of 
TTITLE9=Me Without You
TTITLE10=The Blue Sky Boys - On the Banks of the Ohio
TTITLE11=Jimmie Davis - My Mary
TTITLE12=Tommy Dorsey and His Orchestra - After You've Gone
TTITLE13=Enric Madgriguera and his Hotel Biltmore Orchestra - Let's Have Anothe
TTITLE13=r Cup of Coffee
TTITLE14=Johnny Hamp's Kentucky Serenaders (vocal Frank Luther) - Sunnyside Up
TTITLE15=Django Reinhardt and the Quintet of the Hot Club of France - Limehouse
TTITLE15=Blues
TTITLE16=Django Reinhardt and the Quintet of the Hot Club of France - Are You i
TTITLE16=n the Mood?
TTITLE17=Django Reinhardt and the Quintet of the Hot Club of France - You're Dr
TTITLE17=iving Me Crazy
TTITLE18=Django Reinhardt and the Quintet of the Hot Club of France - When Day 
TTITLE18=Is Done
TTITLE19=Django Reinhardt and the Quintet of the Hot Club of France - Lieberstr
TTITLE19=aum No. 3
TTITLE20=Django Reinhardt and the Quintet of the Hot Club of France - Mystery P
TTITLE20=acific
TTITLE21=Django Reinhardt and the Quintet of the Hot Club of France - Improvisa
TTITLE21=tion
TTITLE22=Django Reinhardt and the Quintet of the Hot Club of France - Minor Swi
TTITLE22=ng
TTITLE23=Django Reinhardt and the Quintet of the Hot Club of France - Swingin' 
TTITLE23=with Django
TTITLE24=Django Reinhardt and the Quintet of the Hot Club of France - Echoes of
TTITLE24=Spain
TTITLE25=Django Reinhardt and the Quintet of the Hot Club of France - I'll See 
TTITLE25=You In My Dreams
EXTD=
EXTT0=
EXTT1=
EXTT2=
EXTT3=
EXTT4=
EXTT5=
EXTT6=
EXTT7=
EXTT8=
EXTT9=
EXTT10=
EXTT11=
EXTT12=
EXTT13=
EXTT14=
EXTT15=
EXTT16=
EXTT17=
EXTT18=
EXTT19=
EXTT20=
EXTT21=
EXTT22=
EXTT23=
EXTT24=
EXTT25=
PLAYORDER=
